<?xml version="1.0" encoding="UTF-8" standalone="no"?>
<svg
   width="16"
   height="16"
   version="1.1"
   id="svg3"
   sodipodi:docname="car_input.svg"
   inkscape:version="1.4 (e7c3feb100, 2024-10-09)"
   xmlns:inkscape="http://www.inkscape.org/namespaces/inkscape"
   xmlns:sodipodi="http://sodipodi.sourceforge.net/DTD/sodipodi-0.dtd"
   xmlns="http://www.w3.org/2000/svg"
   xmlns:svg="http://www.w3.org/2000/svg">
  <defs
     id="defs3" />
  <sodipodi:namedview
     id="namedview3"
     pagecolor="#ffffff"
     bordercolor="#000000"
     borderopacity="0.25"
     inkscape:showpageshadow="2"
     inkscape:pageopacity="0.0"
     inkscape:pagecheckerboard="0"
     inkscape:deskcolor="#d1d1d1"
     inkscape:zoom="50.6875"
     inkscape:cx="8.0098644"
     inkscape:cy="8"
     inkscape:window-width="1920"
     inkscape:window-height="1014"
     inkscape:window-x="0"
     inkscape:window-y="0"
     inkscape:window-maximized="1"
     inkscape:current-layer="svg3" />
  <path
     fill="#69c4d4"
     d="M4.55 5a.85.85 0 0 0-.85.85v7.65a.85.85 0 0 0 .85.85h6.8a.85.85 0 0 0 .85-.85V5.85a.85.85 0 0 0-.85-.85zM8.5 6.2l.282 1.129.345.14.994-.597.707.707-.598.997.143.342L11.5 9.2v1l-1.129.282-.14.344.597.995-.707.707-.997-.598-.343.143-.28 1.127h-1l-.283-1.13-.344-.139-.995.597-.707-.707.598-.997-.143-.343L4.5 10.2v-1l1.13-.282.139-.344-.597-.995.707-.707.997.598.343-.143L7.5 6.2z"
     id="path1"
     style="fill:#fc7f7f;fill-opacity:1" />
  <circle
     cx="8"
     cy="9.675"
     r="1"
     fill="#69c4d4"
     id="circle1"
     style="fill:#fc7f7f;fill-opacity:1" />
  <path
     fill="#e0e0e0"
     d="M2 6.36v7.65a1.7 1.7 0 0 0 1.7 1.7h8.5a1.7 1.7 0 0 0 1.7-1.7V6.36h-.85v7.65a.85.85 0 0 1-.85.85H3.7a.85.85 0 0 1-.85-.85V6.36z"
     id="path2"
     style="fill:#fc7f7f;fill-opacity:1" />
  <path
     fill="none"
     stroke="#69c4d4"
     stroke-linecap="round"
     stroke-width="1.25"
     d="m10.5 3.6.75-1.5M5.5 3.6l-.75-1.5M8 3.2V1.5"
     id="path3"
     style="stroke:#fc7f7f;stroke-opacity:1" />
</svg>
